<?xml version="1.0" encoding="UTF-8" standalone="no"?>
<!-- Created with Inkscape (http://www.inkscape.org/) -->

<svg
   xmlns:dc="http://purl.org/dc/elements/1.1/"
   xmlns:cc="http://creativecommons.org/ns#"
   xmlns:rdf="http://www.w3.org/1999/02/22-rdf-syntax-ns#"
   xmlns:svg="http://www.w3.org/2000/svg"
   xmlns="http://www.w3.org/2000/svg"
   xmlns:sodipodi="http://sodipodi.sourceforge.net/DTD/sodipodi-0.dtd"
   xmlns:inkscape="http://www.inkscape.org/namespaces/inkscape"
   version="1.1"
   id="svg3738"
   width="64"
   height="64"
   viewBox="0 0 64 64"
   sodipodi:docname="link.svg"
   inkscape:version="0.92.2 (5c3e80d, 2017-08-06)">
  <metadata
     id="metadata3744">
    <rdf:RDF>
      <cc:Work
         rdf:about="">
        <dc:format>image/svg+xml</dc:format>
        <dc:type
           rdf:resource="http://purl.org/dc/dcmitype/StillImage" />
        <dc:title></dc:title>
      </cc:Work>
    </rdf:RDF>
  </metadata>
  <defs
     id="defs3742" />
  <sodipodi:namedview
     pagecolor="#ffffff"
     bordercolor="#666666"
     borderopacity="1"
     objecttolerance="10"
     gridtolerance="10"
     guidetolerance="10"
     inkscape:pageopacity="0"
     inkscape:pageshadow="2"
     inkscape:window-width="1920"
     inkscape:window-height="986"
     id="namedview3740"
     showgrid="false"
     fit-margin-top="0"
     fit-margin-left="0"
     fit-margin-right="0"
     fit-margin-bottom="0"
     inkscape:zoom="4.72"
     inkscape:cx="138.22632"
     inkscape:cy="52.386135"
     inkscape:window-x="-11"
     inkscape:window-y="-11"
     inkscape:window-maximized="1"
     inkscape:current-layer="svg3738" />
  <path
     style="fill:#ffff00;stroke-width:0.04005092"
     d="M 14.338285,63.135834 C 10.091197,62.887684 6.2402143,60.843493 3.7177229,57.498002 2.1314782,55.394232 1.1865759,52.957324 0.89768867,50.225149 0.81537777,49.446628 0.83790497,47.581466 0.93839137,46.854152 1.2904599,44.306263 2.1462757,42.060068 3.5859223,39.905383 c 0.8806804,-1.318142 0.7370049,-1.166468 7.9646097,-8.404762 3.680994,-3.686416 6.899981,-6.882472 7.153303,-7.10239 2.573721,-2.234708 5.660638,-3.577577 9.111586,-3.963869 0.57928,-0.06522 2.319771,-0.06425 2.903692,0 3.016409,0.337713 5.587734,1.419291 7.822713,3.290293 1.134548,0.949763 1.594077,1.567459 1.897707,2.550712 0.101325,0.328172 0.10857,0.400407 0.107657,1.072718 -9.22e-4,0.670753 -0.0087,0.746103 -0.11105,1.081383 -0.222615,0.729066 -0.568764,1.288741 -1.116232,1.804803 -0.739261,0.696843 -1.658253,1.057823 -2.693283,1.057823 -1.116112,0 -1.960504,-0.362246 -2.943743,-1.262749 -0.695984,-0.637361 -1.402982,-1.065319 -2.243718,-1.357958 -2.393919,-0.833234 -5.164919,-0.272196 -7.348479,1.487728 -0.448058,0.361175 -13.015763,12.994407 -13.459609,13.529744 -0.7333806,0.884732 -1.3302446,2.0071 -1.6400396,3.084004 -0.2823677,0.9815 -0.3522564,2.170651 -0.1834359,3.121193 0.2985942,1.681069 1.1961575,3.11175 2.6069655,4.155457 1.093415,0.808798 2.335782,1.203656 3.784813,1.20278 1.760888,0 3.421032,-0.618864 5.006365,-1.863116 0.20823,-0.163454 1.925035,-1.843939 4.06517,-3.979154 l 3.704711,-3.696346 0.200254,0.159754 c 0.833574,0.664815 2.509369,1.271705 4.357237,1.578071 0.902913,0.14963 1.4425,0.19519 2.311243,0.195093 1.322512,0 2.280899,-0.195872 2.938533,-0.599979 0.175935,-0.10806 -10.875479,10.98205 -11.689661,11.730587 -2.655391,2.441484 -5.865512,3.923955 -9.291815,4.291068 -0.726104,0.07788 -1.780782,0.106211 -2.463132,0.0662 z M 33.903163,43.547407 c -2.950637,-0.161409 -5.788774,-1.223127 -8.071498,-3.019558 -0.574799,-0.452296 -1.276671,-1.107472 -1.546558,-1.443531 -0.642526,-0.800133 -0.963453,-1.880445 -0.854028,-2.874892 0.157986,-1.435743 0.980274,-2.596857 2.265544,-3.199172 0.505173,-0.236759 0.87188,-0.32126 1.492489,-0.344041 0.624204,-0.02336 0.995908,0.02628 1.486705,0.197916 0.623414,0.217679 0.963268,0.438667 1.682839,1.094233 2.079208,1.894367 5.159643,2.228965 7.920985,0.860297 0.596582,-0.295657 1.157581,-0.654106 1.637419,-1.046238 0.167855,-0.137169 1.991834,-1.944795 4.053287,-4.017023 2.06145,-2.072229 4.913649,-4.939236 6.338216,-6.371085 1.424568,-1.431751 2.69401,-2.720395 2.820983,-2.8636 0.861204,-0.97118 1.550319,-2.207839 1.874672,-3.36428 0.209463,-0.746785 0.244875,-1.034751 0.243818,-1.982567 -0.0011,-0.970402 -0.05441,-1.337125 -0.302917,-2.082645 -0.706118,-2.118275 -2.538696,-3.7792896 -4.701338,-4.2609861 -2.102622,-0.468359 -4.376529,0.1151671 -6.347912,1.6288881 -0.203538,0.15625 -1.854298,1.772093 -4.105219,4.018484 l -3.764788,3.757094 -0.280356,-0.219918 c -0.689151,-0.540594 -2.14774,-1.100463 -3.688251,-1.415493 -1.066896,-0.218263 -1.8141,-0.297312 -2.840051,-0.300622 -1.30306,0 -2.057017,0.124512 -2.758343,0.47089 l -0.355288,0.175525 6.022494,-6.016043 c 3.562752,-3.5588858 6.199617,-6.1616807 6.456164,-6.3725445 2.524267,-2.075246 5.360466,-3.2970098 8.557763,-3.68651403 0.713956,-0.086643 2.477214,-0.098228 3.143998,-0.020444 3.488144,0.40877973 6.331167,1.75310933 8.692594,4.11048063 2.434391,2.4301904 3.852519,5.5389219 4.147594,9.0920639 0.05699,0.686233 0.0237,2.295748 -0.06069,2.934765 -0.417827,3.163638 -1.659226,5.989563 -3.724997,8.479722 -0.407226,0.490944 -1.458646,1.551007 -7.092001,7.150384 -5.772153,5.737325 -6.878767,6.821336 -7.374959,7.224372 -2.440355,1.982373 -5.120832,3.169285 -8.107624,3.589941 -0.502635,0.07107 -1.873557,0.166374 -2.179876,0.152064 -0.06608,0 -0.372474,-0.01947 -0.680866,-0.03602 z"
     id="path3748"
     inkscape:connector-curvature="0" />
</svg>
