<?xml version="1.0" encoding="UTF-8" standalone="no"?>
<!-- Created with Inkscape (http://www.inkscape.org/) -->

<svg
   xmlns:dc="http://purl.org/dc/elements/1.1/"
   xmlns:cc="http://creativecommons.org/ns#"
   xmlns:rdf="http://www.w3.org/1999/02/22-rdf-syntax-ns#"
   xmlns:svg="http://www.w3.org/2000/svg"
   xmlns="http://www.w3.org/2000/svg"
   xmlns:sodipodi="http://sodipodi.sourceforge.net/DTD/sodipodi-0.dtd"
   xmlns:inkscape="http://www.inkscape.org/namespaces/inkscape"
   width="64"
   height="64"
   viewBox="0 0 16.933333 16.933334"
   version="1.1"
   id="svg8"
   inkscape:version="0.92.2 (5c3e80d, 2017-08-06)"
   sodipodi:docname="unlink.svg">
  <defs
     id="defs2" />
  <sodipodi:namedview
     id="base"
     pagecolor="#ffffff"
     bordercolor="#666666"
     borderopacity="1.0"
     inkscape:pageopacity="0.0"
     inkscape:pageshadow="2"
     inkscape:zoom="5.6"
     inkscape:cx="9.995617"
     inkscape:cy="36.668068"
     inkscape:document-units="mm"
     inkscape:current-layer="layer1"
     showgrid="false"
     fit-margin-top="0"
     fit-margin-left="0"
     fit-margin-right="0"
     fit-margin-bottom="0"
     units="px"
     inkscape:window-width="1920"
     inkscape:window-height="986"
     inkscape:window-x="-11"
     inkscape:window-y="-11"
     inkscape:window-maximized="1" />
  <metadata
     id="metadata5">
    <rdf:RDF>
      <cc:Work
         rdf:about="">
        <dc:format>image/svg+xml</dc:format>
        <dc:type
           rdf:resource="http://purl.org/dc/dcmitype/StillImage" />
        <dc:title></dc:title>
      </cc:Work>
    </rdf:RDF>
  </metadata>
  <g
     inkscape:label="1. réteg"
     inkscape:groupmode="layer"
     id="layer1"
     transform="translate(-43.156551,-167.26353)">
    <path
       style="fill:#ffff00;stroke-width:0.03662459"
       d="m 46.256508,184.17255 c -0.958714,-0.17141 -1.856101,-0.7361 -2.415418,-1.51991 -0.2098,-0.29401 -0.46697,-0.83766 -0.562553,-1.18923 -0.274817,-1.0108 -0.07712,-2.20357 0.510631,-3.08093 0.186192,-0.27794 2.252856,-2.37291 2.599456,-2.63507 0.417158,-0.31552 0.950284,-0.56166 1.47907,-0.68288 0.179515,-0.0411 0.425838,-0.0592 0.791655,-0.058 0.45212,0.001 0.585496,0.0161 0.897303,0.0979 0.834488,0.21911 1.565052,0.70355 2.078064,1.37796 0.223842,0.29426 0.512917,0.8811 0.611181,1.24074 0.284562,1.04143 0.114928,2.12615 -0.476094,3.04434 -0.18836,0.29263 -0.405335,0.52925 -1.365054,1.4887 -0.916003,0.91573 -1.202502,1.17994 -1.452403,1.33939 -0.669501,0.42718 -1.184875,0.58342 -1.977728,0.59956 -0.292082,0.006 -0.615231,-0.004 -0.71811,-0.0226 z m 1.263325,-1.93802 c 0.128648,-0.0437 0.31818,-0.13422 0.421183,-0.20121 0.103003,-0.067 0.650413,-0.58934 1.216472,-1.16076 1.08819,-1.09851 1.157308,-1.1875 1.279886,-1.64805 0.218147,-0.81961 -0.213675,-1.77183 -0.972595,-2.14467 -0.304164,-0.14943 -0.496117,-0.1925 -0.862876,-0.19361 -0.334312,-9.7e-4 -0.591186,0.0634 -0.913106,0.229 -0.32082,0.16503 -2.257653,2.10302 -2.427339,2.42879 -0.577306,1.10834 0.01565,2.43698 1.224038,2.74271 0.285852,0.0723 0.73417,0.0497 1.034337,-0.0522 z m 6.49939,0.36443 c -0.06353,-0.0419 -0.140469,-0.12912 -0.170982,-0.19384 -0.0953,-0.20211 -0.720699,-2.58757 -0.720552,-2.7484 4.15e-4,-0.32152 0.232485,-0.52081 0.573816,-0.49251 0.192645,0.016 0.335489,0.10152 0.414748,0.24838 0.01636,0.0303 0.189741,0.6524 0.385302,1.38243 0.393806,1.47011 0.396149,1.49186 0.185634,1.72158 -0.107947,0.11779 -0.143418,0.13308 -0.336564,0.1451 -0.172418,0.0107 -0.239159,-0.002 -0.331402,-0.0627 z m 3.186102,-0.54498 c -0.09749,-0.0781 -0.567044,-0.53581 -1.043453,-1.01723 -0.731507,-0.7392 -0.872621,-0.89916 -0.907503,-1.0287 -0.09558,-0.35497 0.143825,-0.66887 0.510151,-0.66887 0.08258,0 0.194642,0.0235 0.249037,0.0523 0.150282,0.0794 2.011694,1.96564 2.0561,2.08352 0.08749,0.23225 0.02341,0.45185 -0.182405,0.62502 -0.09179,0.0772 -0.152039,0.0959 -0.309335,0.0959 -0.17193,0 -0.216575,-0.017 -0.372592,-0.14192 z m -0.772497,-3.62417 c -1.158176,-0.31312 -1.341831,-0.37247 -1.438101,-0.4647 -0.340078,-0.32582 -0.112413,-0.89611 0.357895,-0.89652 0.176549,-1.4e-4 2.563575,0.62519 2.747584,0.7198 0.336694,0.17312 0.353857,0.6988 0.02975,0.91117 -0.188562,0.12355 -0.319268,0.10277 -1.697125,-0.26975 z m -2.334727,-1.94875 c -2.41523,-0.37635 -3.834463,-2.79966 -2.969423,-5.07021 0.134973,-0.35428 0.316397,-0.66756 0.567605,-0.98012 0.307404,-0.38248 2.211393,-2.25602 2.49338,-2.4535 0.67064,-0.46966 1.353587,-0.68368 2.189865,-0.68626 1.612958,-0.005 3.017365,1.01477 3.539449,2.57002 0.124245,0.37013 0.173043,0.70983 0.170835,1.1893 -0.0032,0.68412 -0.18187,1.3229 -0.538598,1.92507 -0.151057,0.255 -0.357306,0.48256 -1.314533,1.45039 -0.62445,0.63137 -1.24249,1.2294 -1.373423,1.32897 -0.342989,0.26081 -0.90666,0.53014 -1.336798,0.63872 -0.413054,0.10427 -1.064911,0.14426 -1.428359,0.0876 z m 1.04631,-1.92488 c 0.464356,-0.1364 0.580723,-0.22823 1.687241,-1.33143 0.981531,-0.97859 1.057084,-1.0633 1.177593,-1.32036 0.07082,-0.15108 0.146851,-0.36202 0.16895,-0.46877 0.173883,-0.83999 -0.235925,-1.68213 -1.00369,-2.06257 -0.569773,-0.28234 -1.116149,-0.28236 -1.682969,-8e-5 -0.276343,0.13763 -0.359969,0.21246 -1.342937,1.20175 -0.626361,0.63039 -1.089489,1.12688 -1.150729,1.23361 -0.302733,0.52764 -0.312522,1.21795 -0.02568,1.81115 0.199384,0.41235 0.747757,0.84754 1.202268,0.95414 0.237632,0.0557 0.752349,0.0465 0.969958,-0.0174 z m -8.70508,-0.47075 c -0.687209,-0.18632 -1.287018,-0.36506 -1.332912,-0.39721 -0.287239,-0.20119 -0.294916,-0.64383 -0.01498,-0.86402 0.191752,-0.15083 0.256676,-0.14168 1.68653,0.23768 1.310237,0.34763 1.354406,0.36228 1.487669,0.49338 0.234811,0.231 0.188192,0.6328 -0.09334,0.80446 -0.195605,0.11926 -0.401713,0.0866 -1.732967,-0.27429 z m 2.931213,-1.77703 c -0.196667,-0.0796 -0.245242,-0.20459 -0.61615,-1.586 -0.399051,-1.4862 -0.401439,-1.50801 -0.190426,-1.73826 0.104101,-0.1136 0.14704,-0.13313 0.325201,-0.1479 0.245743,-0.0204 0.425427,0.0697 0.514103,0.25779 0.09286,0.19694 0.721061,2.58568 0.721061,2.74185 0,0.30201 -0.2105,0.50955 -0.512744,0.50554 -0.09065,-0.001 -0.199117,-0.0161 -0.241045,-0.033 z m -2.157866,-0.21702 c -0.178399,-0.1122 -1.988049,-1.95389 -2.030439,-2.06639 -0.08751,-0.23224 -0.02343,-0.45184 0.182391,-0.62503 0.0918,-0.0772 0.152043,-0.0959 0.309338,-0.0959 0.257025,0 0.319869,0.0514 1.416047,1.15915 0.731503,0.7392 0.872617,0.89916 0.907498,1.02869 0.09649,0.35833 -0.143975,0.66907 -0.517487,0.66874 -0.09087,-7e-5 -0.203944,-0.0294 -0.267348,-0.0692 z"
       id="path3720"
       inkscape:connector-curvature="0" />
  </g>
</svg>
