<?xml version="1.0" encoding="UTF-8" standalone="no"?>
<svg
   xmlns:dc="http://purl.org/dc/elements/1.1/"
   xmlns:cc="http://creativecommons.org/ns#"
   xmlns:rdf="http://www.w3.org/1999/02/22-rdf-syntax-ns#"
   xmlns:svg="http://www.w3.org/2000/svg"
   xmlns="http://www.w3.org/2000/svg"
   xmlns:sodipodi="http://sodipodi.sourceforge.net/DTD/sodipodi-0.dtd"
   xmlns:inkscape="http://www.inkscape.org/namespaces/inkscape"
   width="116"
   height="106"
   version="1.1"
   id="svg5084"
   sodipodi:docname="heart_empty.svg"
   inkscape:version="0.92.2 (5c3e80d, 2017-08-06)">
  <metadata
     id="metadata5090">
    <rdf:RDF>
      <cc:Work
         rdf:about="">
        <dc:format>image/svg+xml</dc:format>
        <dc:type
           rdf:resource="http://purl.org/dc/dcmitype/StillImage" />
        <dc:title></dc:title>
      </cc:Work>
    </rdf:RDF>
  </metadata>
  <defs
     id="defs5088" />
  <sodipodi:namedview
     pagecolor="#ffffff"
     bordercolor="#666666"
     borderopacity="1"
     objecttolerance="10"
     gridtolerance="10"
     guidetolerance="10"
     inkscape:pageopacity="0"
     inkscape:pageshadow="2"
     inkscape:window-width="1920"
     inkscape:window-height="1001"
     id="namedview5086"
     showgrid="false"
     inkscape:zoom="6.2972528"
     inkscape:cx="79.44682"
     inkscape:cy="70.146537"
     inkscape:window-x="-9"
     inkscape:window-y="-9"
     inkscape:window-maximized="1"
     inkscape:current-layer="svg5084" />
  <path
     d="M 30 0 C 13 0 0 13 0 30 C 0 63 18 68 58 106 C 98 68 116 63 116 30 C 116 13 103 0 86 0 C 74 0 64 7 58 17 C 52 7 42 0 30 0 z M 30.404297 1.984375 C 42.457635 1.9933695 52.620087 10.458185 58 20.800781 C 61.025176 15.479754 64.801854 10.418884 69.964844 7 C 83.874839 -3.2001622 105.99571 2.9729002 111.84375 18.876953 C 116.43343 32.186715 113.70002 47.99291 105.23633 59.224609 C 91.473815 75.873582 73.217423 88.025297 58 103.25391 C 45.393524 91.132231 31.665901 80.257102 18.931641 68.279297 C 8.4066316 59.064161 1.4862733 45.701624 2.0136719 31.509766 C 0.83362258 15.942031 13.598117 1.9274826 29.232422 2.0097656 C 29.625078 1.9922362 30.01548 1.9840849 30.404297 1.984375 z "
     id="path5082"
     style="fill:#ff0707;fill-opacity:1" />
</svg>
