<?xml version="1.0" encoding="UTF-8" standalone="no"?>
<svg
   xmlns:dc="http://purl.org/dc/elements/1.1/"
   xmlns:cc="http://creativecommons.org/ns#"
   xmlns:rdf="http://www.w3.org/1999/02/22-rdf-syntax-ns#"
   xmlns:svg="http://www.w3.org/2000/svg"
   xmlns="http://www.w3.org/2000/svg"
   xmlns:xlink="http://www.w3.org/1999/xlink"
   xmlns:sodipodi="http://sodipodi.sourceforge.net/DTD/sodipodi-0.dtd"
   xmlns:inkscape="http://www.inkscape.org/namespaces/inkscape"
   width="116"
   height="106"
   version="1.1"
   id="svg5084"
   sodipodi:docname="heart_filled.svg"
   inkscape:version="0.92.2 (5c3e80d, 2017-08-06)">
  <metadata
     id="metadata5090">
    <rdf:RDF>
      <cc:Work
         rdf:about="">
        <dc:format>image/svg+xml</dc:format>
        <dc:type
           rdf:resource="http://purl.org/dc/dcmitype/StillImage" />
        <dc:title></dc:title>
      </cc:Work>
    </rdf:RDF>
  </metadata>
  <defs
     id="defs5088">
    <linearGradient
       inkscape:collect="always"
       id="linearGradient5643">
      <stop
         style="stop-color:#ff0707;stop-opacity:1;"
         offset="0"
         id="stop5639" />
      <stop
         style="stop-color:#ffffff;stop-opacity:1"
         offset="1"
         id="stop5641" />
    </linearGradient>
    <linearGradient
       inkscape:collect="always"
       xlink:href="#linearGradient5643"
       id="linearGradient5647"
       x1="49.855934"
       y1="46.711864"
       x2="48.95763"
       y2="-10.779661"
       gradientUnits="userSpaceOnUse" />
  </defs>
  <sodipodi:namedview
     pagecolor="#ffffff"
     bordercolor="#666666"
     borderopacity="1"
     objecttolerance="10"
     gridtolerance="10"
     guidetolerance="10"
     inkscape:pageopacity="0"
     inkscape:pageshadow="2"
     inkscape:window-width="1920"
     inkscape:window-height="1001"
     id="namedview5086"
     showgrid="false"
     inkscape:zoom="2.2264151"
     inkscape:cx="58"
     inkscape:cy="53"
     inkscape:window-x="-9"
     inkscape:window-y="-9"
     inkscape:window-maximized="1"
     inkscape:current-layer="svg5084" />
  <path
     d="M 58,17 C 52,7 42,0 30,0 C 13,0 0,13 0,30 C 0,63 18,68 58,106 C 98,68 116,63 116,30 C 116,13 103,0 86,0 C 74,0 64,7 58,17 z"
     fill="#ff0707"
     id="path5082" />
  <path
     style="fill:url(#linearGradient5647);fill-opacity:1"
     d="M 29.232422,2.0097656 C 13.598117,1.9274826 0.8336226,15.942031 2.0136719,31.509766 1.4862733,45.701624 8.406161,59.064707 18.93117,68.279843 31.66543,80.257648 45.393524,91.132235 58,103.25391 73.217423,88.025301 91.473817,75.873582 105.23633,59.224609 113.70002,47.99291 116.43343,32.186715 111.84375,18.876953 105.99571,2.9729001 83.874839,-3.2001622 69.964844,7 64.801854,10.418884 61.025176,15.479754 58,20.800781 52.446541,10.124553 41.797426,1.448825 29.232422,2.0097656 Z"
     id="path5635"
     inkscape:connector-curvature="0" />
</svg>
